/* XPM */
static char *eae446e3258246a8890fef31be4df11160r1IBNJIFsJy0Ep[] = {
/* columns rows colors chars-per-pixel */
"64 64 186 2 ",
"   c None",
".  c #010000",
"X  c #0B0402",
"o  c #0F0A02",
"O  c #090909",
"+  c #130000",
"@  c #1B0000",
"#  c #140B05",
"$  c #190E07",
"%  c #1B0F08",
"&  c #1D1008",
"*  c #131313",
"=  c #1B1C1C",
"-  c #230000",
";  c #2C0000",
":  c #330000",
">  c #3B0000",
",  c #390C00",
"<  c #23140A",
"1  c #29170B",
"2  c #2D1A0D",
"3  c #241D00",
"4  c #341D0E",
"5  c #381F0F",
"6  c #2C1E14",
"7  c #261B13",
"8  c #332A00",
"9  c #3A200F",
"0  c #3A2F00",
"q  c #3C3100",
"w  c #27201B",
"e  c #2B221C",
"r  c #3C2211",
"t  c #3D291C",
"y  c gray15",
"u  c #2C2A28",
"i  c #3A2E25",
"p  c #37312C",
"a  c #353535",
"s  c #410000",
"d  c #4B0100",
"f  c #540100",
"g  c #590000",
"h  c #431600",
"j  c #650000",
"k  c #6C0000",
"l  c #740000",
"z  c #7B0000",
"x  c #412E00",
"c  c #433600",
"v  c #4A3409",
"b  c #553B0A",
"n  c #432612",
"m  c #472814",
"M  c #4C2B14",
"N  c #432D1D",
"B  c #522E16",
"V  c #5B3216",
"C  c #553119",
"Z  c #5C3419",
"A  c #583418",
"S  c #61361A",
"D  c #64391B",
"F  c #6C3D1D",
"G  c #703F1E",
"H  c #4E3728",
"J  c #5D3B24",
"K  c #533B2C",
"L  c #523725",
"P  c #4E3E33",
"I  c #413C38",
"U  c #683E22",
"Y  c #554400",
"T  c #584400",
"R  c #5E4309",
"E  c #5C4A00",
"W  c #61420D",
"Q  c #6A5302",
"!  c #665100",
"~  c #745C00",
"^  c #664114",
"/  c #72411E",
"(  c #79431F",
")  c #7C6400",
"_  c #5E422F",
"`  c #554438",
"'  c #63422C",
"]  c #6C4023",
"[  c #754221",
"{  c #7B4521",
"}  c #794827",
"|  c #4A4A4A",
" . c #464545",
".. c #5A4C44",
"X. c #525252",
"o. c #5B5B5B",
"O. c #64554B",
"+. c #5E5F60",
"@. c #626363",
"#. c #6B6561",
"$. c #6C6C6B",
"%. c #6D6865",
"&. c #76706D",
"*. c #6D6F70",
"=. c #6F7171",
"-. c #747474",
";. c #7A7A7A",
":. c #7D7977",
">. c #726D69",
",. c #830000",
"<. c #8A0000",
"1. c #930000",
"2. c #9D0000",
"3. c #A40000",
"4. c #AA0000",
"5. c #856A01",
"6. c #8D7100",
"7. c #927500",
"8. c #9C7D00",
"9. c #844A24",
"0. c #8C4E25",
"q. c #8C4E28",
"w. c #8E5027",
"e. c #955327",
"r. c #945429",
"t. c #9A5629",
"y. c #9D582B",
"u. c #9A5527",
"i. c #A35C2D",
"p. c #A95F2E",
"a. c #AC612F",
"s. c #B5652F",
"d. c #AF6330",
"f. c #B46531",
"g. c #BB6A33",
"h. c #B86733",
"j. c #C36E35",
"k. c #C77037",
"l. c #C87137",
"z. c #CB7238",
"x. c #817F7D",
"c. c #9F8200",
"v. c #A58400",
"b. c #B08E00",
"n. c #BF9A00",
"m. c #BC9700",
"M. c #C39D00",
"N. c #CAA200",
"B. c #D6AC00",
"V. c #DBB000",
"C. c #E3B600",
"Z. c #ECBD00",
"A. c #E6B900",
"S. c #EFC000",
"D. c #F2C200",
"F. c #FFCC00",
"G. c #F8C700",
"H. c #FFD000",
"J. c #7F8081",
"K. c #848485",
"L. c #8C8A89",
"P. c #8D8F90",
"I. c #8F9091",
"U. c #9C9C9D",
"Y. c #939596",
"T. c #A3A4A4",
"R. c #ABABAC",
"E. c #B2B3B4",
"W. c #BCBCBD",
"Q. c #BEBFC0",
"!. c #C4C5C5",
"~. c #C7C9C9",
"^. c #CACBCC",
"/. c #CECFD0",
"(. c #CFD0D1",
"). c #D4D4D4",
"_. c #DADBDC",
"`. c #D7D8D9",
"'. c #E2E2E2",
"]. c #EBECEC",
"[. c #F3F3F3",
"{. c white",
"}. c #FEFEFE",
"|. c #FDFDFD",
" X c #FFFFFF",
".X c #F7F8F8",
/* pixels */
"                                                      . X $ < 1 1 < & o .                                                       ",
"                                                  $ n / r.p.f.h.h.h.a.r.F r $                                                   ",
"                                              # A i.j.z.z.z.l.l.l.l.l.z.z.j.i.Z %                                               ",
"                                          . 4 r.l.z.l.l.l.l.l.l.l.l.l.l.l.l.z.l.i.m .                                           ",
"                              . . . . . . m f.z.l.l.l.l.l.l.l.l.l.l.l.l.l.l.l.l.z.g.S X . . . . .                               ",
"                                . . . . # i.z.l.l.l.l.l.l.l.l.l.l.l.l.l.l.l.l.l.l.z.h.< . . . .                                 ",
"                                  . . . . S l.l.l.l.l.l.l.l.l.l.l.l.l.l.l.l.l.l.l.z.{ . . . .                                   ",
"                                    . . . # i.z.l.l.l.l.l.l.l.l.l.l.l.l.l.l.l.l.l.f.< . . .                                     ",
"                                  . Z M . . A l.l.l.l.l.l.l.l.l.l.l.l.l.l.l.l.l.z./ . . 4 G o                                   ",
"                                  2 h.h.2 . $ p.z.l.l.l.l.l.l.l.l.l.l.l.l.l.l.l.h.1 . % i.j.m                                   ",
"                                . { z.z.r.# . D l.l.l.l.l.l.l.l.l.l.l.l.l.l.l.z.9.. X 9.z.z.r.#                                 ",
"                                2 h.l.l.l.F . < f.l.l.l.l.l.l.l.l.l.l.l.l.l.l.j.r . B j.l.l.j.n                                 ",
"                              . / z.l.l.l.h.4 . [ z.l.l.l.l.l.k.l.l.l.l.l.l.z.r.X % a.z.l.l.z.9.X                               ",
"                              & a.l.l.l.l.h.Z . 1 h.l.l.l.g.{ h.k.9.f.l.l.l.j.m . m s.l.l.l.l.h.4                               ",
"                              B l.l.l.g.G P &.@.O G z.l.z.{ 1 g.k.r Z l.l.z.0.. y :.O.] h.z.l.z./                               ",
"                            o r.z.l.g.M o.`.{.|.-.% i.z.j.r 1 g.k.r 1 g.z.f.1 = W.{.[.U.K a.l.l.a.<                             ",
"                            n j.l.l.S | ].{.{.{.].X.r h.j.2 1 g.k.r % h.j.M * R.{.{.{.{.R.J j.l.l.Z                             ",
"                          o w.z.z.y.w !.{.{.{.{.{.).= n a.r % f.j.2 < a.Z . -.{.{.{.{.{.{.-.9.z.z.i.%                           ",
"                          M j.l.k.M @.{.{.{.{.{.{.K.. . < < . Z [ X % 4 . . y `.{.{.{.{.{./.K g.l.k.Z                           ",
"                        & i.z.l.a.7 W.{.{.{.{.{.`.= . . . a O . . . y = . . . $.{.{.{.{.{.{.#.e.z.l.a.<                         ",
"                      X { l.l.z.{ a [.{.{.{.{.{.U.. . . O K.H [ { 9 o.| . . . u ].{.{.{.{.{.T.F l.l.z.9.o                       ",
"                    . Z j.l.l.l.M *.{.{.{.{.{.{.P.. . . * K.} z.z.9. .@.. . . = '.{.{.{.{.{.`.K j.l.l.k.D .                     ",
"                  . B g.l.l.l.g.4 T.{.{.{.{.{.{.~.= . . X.K.9.z.z.i.p U.* . . o.|.{.{.{.{.{.[...a.l.l.l.j.A .                   ",
"                . M g.l.l.l.l.f.7 !.{.{.{.{.{.{.{.E.| @.`.#.i.z.l.h.6 E.T.| -.'.{.{.{.{.{.{.{.%.u.z.l.l.l.j.Z X                 ",
"              . B g.l.l.l.l.z.p.w `.{.{.{.{.{.{.{.{.|.{.].` h.l.l.k.m K.{.|.{.{.{.{.{.{.{.{.{.x.0.z.l.l.l.l.j.D X               ",
"            . B g.l.l.l.l.l.z.i.e `.{.{.{.{.{.{.{.{.{.{.W.U l.l.l.z.G | [.{.{.{.{.{.{.{.{.{.{.L.0.z.l.l.l.l.l.j.F o             ",
"          . C g.l.l.l.l.l.l.z.p.e `.{.{.{.{.{.{.{.{.{.{.:.0.z.l.l.z.i.w ).{.{.{.{.{.{.{.{.{.{.K.0.z.l.l.l.l.l.l.k.[ o           ",
"        . A j.l.l.l.l.l.l.l.l.h.6 !.{.{.{.{.{.{.{.{.{.'.` h.l.l.l.l.j.r J.{.{.{.{.{.{.{.{.{.{.>.t.z.l.l.l.l.l.l.l.k.{ #         ",
"      . Z j.l.l.l.l.l.l.l.l.l.j.r Y.{.{.{.{.{.{.{.{.{.K./ l.l.l.l.l.z.9.u _.{.{.{.{.{.{.{.{.]...s.l.l.l.l.l.l.l.l.l.l.{ #       ",
"    . C j.l.l.l.l.l.l.l.l.l.l.z.(  .[.{.{.{.{.{.{.{.W.H h.l.l.l.l.l.l.j.m +.[.{.{.{.{.{.{.{.R.U l.l.l.l.l.l.l.l.l.l.l.l.[ X     ",
"    n g.l.l.l.l.l.l.l.l.l.l.l.l.h.r ;..X{.{.{.{.{.W.P i.z.l.l.l.l.l.l.z.a.2 @.'.{.{.{.{.{.).` p.z.l.l.l.l.l.l.l.l.l.l.l.j.Z     ",
"  & i.z.l.l.l.l.l.l.l.l.l.l.l.l.z.i.r o.E.(.^.E.$.L i.z.l.l.l.l.l.l.l.l.z.a.n p K.Q.).~.I.P e.l.l.l.l.l.l.l.l.l.l.l.l.l.l.h.2   ",
". Z l.l.l.l.l.l.l.l.l.k.j.z.l.l.l.z.h.F r t t C 9.g.z.l.l.l.l.l.l.l.l.l.l.z.j.0.B t i N D p.l.l.l.l.z.k.j.l.l.l.l.l.l.l.l.z.{ . ",
"X r.z.l.l.l.l.l.l.l.h.Z ' r.k.l.l.l.l.z.j.h.g.k.z.l.l.l.l.l.l.l.l.l.l.l.l.l.l.z.l.j.g.j.l.l.l.l.l.l.i.J ' h.l.l.l.l.l.l.l.z.a.& ",
"$ a.z.l.l.l.l.l.l.z.9. .~.&.[ j.l.l.l.l.l.l.l.l.l.l.l.l.l.l.l.l.l.l.l.l.l.l.l.l.l.l.l.l.l.l.l.l.k.( p R.R.} l.l.l.l.l.l.l.l.h.2 ",
"$ p.z.l.l.l.l.l.l.z.S =.{.|.K.U j.l.l.l.l.l.l.l.l.l.l.l.z.z.z.z.z.z.z.z.z.l.l.l.l.l.l.l.l.l.l.l.{ u !.{._.' j.l.l.l.l.l.l.l.h.2 ",
"X r.z.l.l.l.l.l.l.l.V -.{.{.[.%.0.z.z.z.z.l.j.j.h.f.d.a.p.i.i.i.i.i.i.i.p.a.f.h.g.j.k.z.z.z.z.i.e E.{.{._._ j.l.l.l.l.l.l.l.d.< ",
". D z.l.l.l.l.l.l.l.D X.{.{.{.^.K w.9.F Z M m r 4 4 4 4 4 4 9 4 5 4 4 4 4 4 4 4 r n M A F 9.r.r $.[.{.{.~.J k.l.l.l.l.l.l.z.9.X ",
"  1 h.l.l.l.l.l.l.z.0.= K.;.X.I 6 4 M A F { 0.r.i.a.d.h.h.h.h.h.h.h.h.h.h.f.a.i.y.r.9.[ D C m 1 w I @.P.o.[ z.z.l.l.l.l.l.g.n   ",
"    Z k.l.l.l.l.i.S n 4 B F 0.i.h.j.k.z.z.z.z.z.z.z.l.l.l.l.z.z.z.l.l.l.l.l.l.z.z.z.z.z.z.l.j.g.a.e.( V 9 r A y.l.l.l.l.l.F X   ",
"    o F j.z.l.l.a.9.i.j.l.z.z.z.l.l.l.l.l.l.z.z.z.z.k.j.g.h.h.f.f.h.h.g.j.k.z.z.z.l.l.l.l.l.l.l.l.z.z.l.j.a.0.i.l.l.l.k.{ #     ",
"      X B p.l.z.z.z.z.l.l.l.l.l.l.z.z.z.k.g.i.q.[ S A b b b R R R R R W ^ ^ / { r.p.g.k.z.z.z.l.l.l.l.l.l.l.z.z.z.z.h.D #       ",
"          < S t.h.j.l.l.l.k.j.j.h.i.0.F M 2 v Q 6.b.N.V.A.Z.D.D.D.D.S.Z.C.B.M.v.5.Q v m S 9.t.d.g.j.k.l.l.l.j.h.i.F 2           ",
"              # 4 M B C B M m r 1 % X   . 8 C.F.F.F.F.F.F.F.F.F.F.F.F.F.F.F.F.F.F.F.b.o   . # < 4 n M C C B m 4 $               ",
"                                        . 5.F.F.F.F.F.F.F.F.F.F.F.F.F.F.F.F.F.F.F.F.Z.Y                                         ",
"                                        # N.F.F.F.F.F.F.F.F.F.F.F.F.F.F.F.F.F.F.F.F.F.6.                                        ",
"                                        0 D.F.F.F.F.F.F.F.F.F.F.F.F.F.F.F.F.F.F.F.F.F.n.                                        ",
"                                      . Q F.F.F.F.F.F.F.F.F.F.F.F.F.F.F.F.F.F.F.F.F.F.C.c                                       ",
"                                      . 7.F.F.F.F.F.F.F.F.F.F.F.F.F.F.F.F.F.F.F.F.F.F.D.E                                       ",
"                                      . 8.H.F.F.F.F.F.F.F.F.F.F.F.F.F.F.F.F.F.F.F.F.F.G.~                                       ",
"                                      . 8.H.F.F.F.F.F.F.F.F.F.F.F.F.F.F.F.F.F.F.F.F.F.F.~                                       ",
"                                      . 8.H.F.F.F.F.F.F.F.F.F.F.F.F.F.F.F.F.F.F.F.F.F.G.Q                                       ",
"                          . . . . X   . ) F.F.F.F.F.F.F.F.F.F.F.F.F.F.F.F.F.F.F.F.F.F.Z.q . . X X X .                           ",
"                  . X ; d j l z z z l s x Z.F.F.F.F.F.F.F.F.F.F.F.F.F.F.F.F.F.F.F.F.F.n.# s l ,.,.z l j d ; X                   ",
"              . @ f <.3.4.4.4.4.4.4.4.4.f 7.F.F.F.F.F.F.F.F.F.F.F.F.F.F.F.F.F.F.F.F.D.T f 3.4.4.4.4.4.4.4.2.,.d @               ",
"            . s 1.4.4.4.4.4.4.4.4.4.4.4.2.h c.F.F.F.F.F.F.F.F.F.F.F.F.F.F.F.F.F.F.D.~ d 3.4.4.4.4.4.4.4.4.4.4.4.<.>             ",
"          . d 3.4.4.4.4.4.4.4.4.4.4.4.4.4.<., ~ V.F.F.F.F.F.F.F.F.F.F.F.F.F.F.G.n.b d 2.4.4.4.4.4.4.4.4.4.4.4.4.4.2.>           ",
"        . - 2.4.4.4.4.4.4.4.4.4.4.4.4.4.4.4.2.j h ~ m.A.G.F.F.H.H.F.F.F.D.B.v.T , k 3.4.4.4.4.4.4.4.4.4.4.4.4.4.4.4.<.-         ",
"        . d 4.4.4.4.4.4.4.4.4.4.4.4.4.4.4.4.4.4.<.X o 8 T ~ 6.8.8.7.5.! c 3 . + 1.4.4.4.4.4.4.4.4.4.4.4.4.4.4.4.4.4.3.d         ",
"        . s 4.4.4.4.4.4.4.4.4.4.4.4.4.4.4.4.4.4.j                             . k 4.4.4.4.4.4.4.4.4.4.4.4.4.4.4.4.4.3.s         ",
"          + ,.4.4.4.4.4.4.4.4.4.4.4.4.4.4.4.3.k                               . @ ,.4.4.4.4.4.4.4.4.4.4.4.4.4.4.4.4.k           ",
"          . @ l 3.4.4.4.4.4.4.4.4.4.4.4.3.<.d                                     + g 1.4.4.4.4.4.4.4.4.4.4.4.4.3.j @           ",
"              X > j <.2.3.3.3.3.2.1.<.j s @                                         . @ > j ,.1.2.3.3.3.2.1.<.j >               ",
"                  . + - : > > : : - +                                                     . X @ ; ; : : ; - +                   "
};
