/* XPM */
static char *_afa188530cb405894b36f90c1f5b051xF4Etbu2IinzT3PY[] = {
/* columns rows colors chars-per-pixel */
"64 64 63 1 ",
"  c None",
". c gray20",
"X c #343434",
"o c #353535",
"O c gray21",
"+ c #373737",
"@ c #333A3E",
"# c gray22",
"$ c #393939",
"% c #3A3A3A",
"& c gray23",
"* c #3C3C3C",
"= c gray24",
"- c #3E3E3E",
"; c #3F3F3F",
": c #3C4246",
"> c #36434B",
", c #3C4951",
"< c #36505F",
"1 c #3C505B",
"2 c #375E75",
"3 c gray25",
"4 c gray26",
"5 c #444444",
"6 c #464646",
"7 c #484848",
"8 c #494949",
"9 c #4C4C4C",
"0 c gray30",
"q c #505050",
"w c #515151",
"e c #565656",
"r c gray35",
"t c #5F5F5F",
"y c #396D8C",
"u c #397497",
"i c #3D789B",
"p c #3A7CA2",
"a c #3C7EA4",
"s c #3D7FA5",
"d c #3E86B0",
"f c #3C8AB8",
"g c #3E8DBA",
"h c #3C92C3",
"j c #3E93C5",
"k c #3E9ACF",
"l c #2F95D0",
"z c #3096D1",
"x c #3197D2",
"c c #3298D3",
"v c #3399D5",
"b c #349AD6",
"n c #359CD7",
"m c #369DD9",
"M c #389FDB",
"N c #3EA0D9",
"B c #3EA1DA",
"V c #39A0DD",
"C c #3AA2DE",
"Z c #3BA3DF",
"A c #3CA4E1",
"S c #3EA6E3",
"D c #3FA8E5",
/* pixels */
"     tttttttttttttttttttttttttttttttttttttttttttttttttttttt     ",
"   tttttttttttttttttttttttttttttttttttttttttttttttttttttttttt   ",
" tttrq0077777777777777777777777777777777777777777777777700qrttt ",
" ttq77777777777777777777777777777777777777777777777777777777qtt ",
"tte7777777777777777777777777777777777777777777777777777777777ett",
"tt077777777777777777777777777777777777777777777777777777777770tt",
"tt777777777777777777777777777777777777777777777777777777777777tt",
"tt7753==%%%%%%%%%%%%%%%%%%%%%%%%%%%%%%%%%%%%%%%%%%%%%%%%==3577tt",
"tt7=%%%%%%%%%%%%%%%%%%%%%%%%%%%%%%%%%%%%%%%%%%%%%%%%%%%%%%%%=7tt",
"tt3%%%%%=====%========================================%=%%%%%3tt",
"tt=%=========%==============================================%=tt",
"tt%==========================================================%tt",
"tt%==============================%==%=%========%=============%tt",
"tt=========================%==================================tt",
"tt==================%=========================================tt",
"tt===========%====%=%=================================%=======tt",
"tt======================%=====================================tt",
"tt=%========================%%================%%====%=========tt",
"tt====%%=========================%====%====%====%=============tt",
"tt==========%%===%=========================%==================tt",
"tt======%=========%====%=====%======================%=========tt",
"tt============%===%============================%====%=========tt",
"tt=====%================%=====%++%=========%====%%========%===tt",
"tt===========================+.....%==========================tt",
"tt======%%=========%========+.<yy2.+%=====%%=======%==========tt",
"tt=============%===========+.fDDDDB@+%=========%========%=====tt",
"tt========================+.pDDZMDDh@+========================tt",
"tt=======================+.pDDnllcADh@+=======================tt",
"tt======================+.pDDnllllcADf.+============%=========tt",
"tt======%====%====%%===+.pDDnllllllcADp.+=%===================tt",
"tt====%===============%.pDDnllllllllcADp.+%=======%===========tt",
"tt====================+uDDnllllllllllcADp.====%===%===========tt",
"tt================%===>DDnllllllllllllcADy===========%===%====tt",
"tt===%============%===aDmllllllllllllllzDD===========%========tt",
"tt====================kDvllllllllllllllcDD====================tt",
"tt========%%==%=======dDAzlllllllllllllZDa=========%==========tt",
"tt===============%====,BDAzlllllllllllZDj:====================tt",
"tt=====================1BDAzlllllllllZDj:=====================tt",
"tt=======%==============1BDAzllllllzZDj:================%=====tt",
"tt=======%===%===========1kDAzllllzADk:=====%=======%=======%%tt",
"tt%%=======%==============:jDAzllzADB1=%===%======%===%=======tt",
"tt=====%========%==========:jDZbbADB1==%==============%=======tt",
"tt==========================:jDDDDB1==========================tt",
"tt=====================%======iDDg:===========================tt",
"tt==========%=========%========%============%====%==%%========tt",
"tt===============%==========================%=================tt",
"tt========%======%========================%===============%===tt",
"tt====%===%===========================%=======================tt",
"tt============%====%%=========%===============%====%%=========tt",
"tt========%===============%==========%====%===============%===tt",
"tt============================================================tt",
"tt============================================================tt",
"tt=======%%=%============%%=%======%=%%==%%=%=================tt",
"tt==================%===============================%=========tt",
"tt=====%==========%===============================%===========tt",
"tt============================================================tt",
"tt===============%%==============================%%===========tt",
"tt=================================%==========================tt",
"tt5==========================================================5tt",
"ttq========================%===============%===============%=qtt",
" tt7=====%==================================================7tt ",
" ttt03====================================================30ttt ",
"   tttttttttttttttttttttttttttttttttttttttttttttttttttttttttt   ",
"    tttttttttttttttttttttttttttttttttttttttttttttttttttttttt    "
};
