/* XPM */
static char *b900757bee904dd295c7880450b74aadDzZEqEetQK2uoMwk[] = {
/* columns rows colors chars-per-pixel */
"64 64 32 1 ",
"  c None",
". c #C9810E",
"X c #CB820E",
"o c #CE840E",
"O c #D0860E",
"+ c #D3870F",
"@ c #D6890F",
"# c #D88B0F",
"$ c #DB8C0F",
"% c #E39110",
"& c #E59310",
"* c #EB9611",
"= c #ED9811",
"- c #F09A11",
"; c #F39C12",
": c #F39D17",
"> c #F3A121",
", c #F3A327",
"< c #F3A52C",
"1 c #F3A731",
"2 c #F3A936",
"3 c #F3AB3C",
"4 c #F3AE46",
"5 c #F3B04B",
"6 c #F3B251",
"7 c #F3B456",
"8 c #F3B65B",
"9 c #F2BA65",
"0 c #F3BA65",
"q c #F2B966",
"w c #F3B966",
"e c #F3BA66",
/* pixels */
"                                                                ",
"                                                                ",
"                                                                ",
"                                                                ",
"                                                                ",
"                                                                ",
"                                                                ",
"                                                                ",
"                                                                ",
"                                                                ",
"                                                                ",
"                                                                ",
"                                                                ",
"                                                                ",
"                                                                ",
"                                                                ",
"                                                                ",
"                                                                ",
"                             999999                             ",
"                          999999999999                          ",
"                        99973<,,,,<37999                        ",
"                       996,;;;;;;;;;;,699                       ",
"                      993;;;;;;;;;;;;;;399                      ",
"                     993;;;;;;;;;;;;;;;;399                     ",
"                    994;;;;;*$++++#*;;;;;499                    ",
"                    98:;;;-#........+*;;;:89                    ",
"                   99<;;;;+..........+;;;;<99                   ",
"                   97;;;;$....+&&+....$;;;;79                   ",
"                  992;;;*.....*;;*.....*;;;299                  ",
"                  99,;;;#.....;;;;.....#;;;,99                  ",
"                  99;;;;o.....;;;;.....o;;;;99                  ",
"                  99;;;;......;;;;......;;;;99                  ",
"                  99;;;;......;;;;......;;;;99                  ",
"                  99;;;;......;;;;......;;;;99                  ",
"                  99,;;;@.....;;;;.....@;;;,99                  ",
"                  992;;;&.....=;;=.....&;;;299                  ",
"                   96;;;;+....$--$....+;;;;69                   ",
"                   99>;;;=............=;;;>99                   ",
"                    96;;;;=@........@=;;;;69                    ",
"                    993;;;;;%+....+%;;;;;399                    ",
"                     991;;;;;;;;;;;;;;;;199                     ",
"                     9994;;;;;;;;;;;;;;4999                     ",
"                       995>;;;;;;;;;;>599                       ",
"                        9995<:;;;;:<5999                        ",
"                         99999999999999                         ",
"                            99999999                            ",
"                                                                ",
"                                                                ",
"                                                                ",
"                                                                ",
"                                                                ",
"                                                                ",
"                                                                ",
"                                                                ",
"                                                                ",
"                                                                ",
"                                                                ",
"                                                                ",
"                                                                ",
"                                                                ",
"                                                                ",
"                                                                ",
"                                                                ",
"                                                                "
};
