/* XPM */
static char *_a114d8b272543938ccf8ae306c8ccabpcrbJ0lFDDWfEjg0[] = {
/* columns rows colors chars-per-pixel */
"64 64 29 1 ",
"  c #758C8E",
". c #758D8F",
"X c #768D8F",
"o c #768E90",
"O c #778E90",
"+ c #778E91",
"@ c #778F91",
"# c #788F91",
"$ c #788F92",
"% c #789092",
"& c #799093",
"* c #799193",
"= c #7A9194",
"- c #7A9294",
"; c #7A9295",
": c #7B9295",
"> c #7B9396",
", c #7C9396",
"< c #7C9497",
"1 c #7C9597",
"2 c #7D9598",
"3 c #7D9698",
"4 c #7E9799",
"5 c #7F989B",
"6 c #80999C",
"7 c #819A9D",
"8 c #829B9E",
"9 c #839C9F",
"0 c #849EA1",
/* pixels */
"   100000007   o2222222222222222222222222*   ;2222222222222;    ",
" o70000000007   1222222222222222222222222   *222222222222222;   ",
" 7000000000007  *22222222222222222222222;   12222222222222222o  ",
"700000000000001  12222222222222222222222o  $22222222222222222;  ",
"000000000000000* o222222222222222222222;   *22222222222222222; 7",
"0000000000000007  $2222222222222222222;     22222222222222222$;0",
"0000000000000000;  *22222222222222222;      *222222222222222; 70",
"00000000000000001   ;222222222222222;  ;72*  ;2222222222222,  20",
"0000000000000000;    $2222222222222;  200007  1222222222221   *0",
"0000000000000000o     $22222222222;  50000007  ,2222222221o    5",
"700000000000000;       o122222222*  2000000007  ;22222221o      ",
"o0000000000000;          1222222$  100000000002  ;222221        ",
" ;00000000009*            *122;   o000000000000;  ;222;   ;;;;$ ",
"  ;000000009o                     o0000000000001    o   *2222221",
",  20000007o   ;22;                700000000000o       *22222222",
"21  290002   $22222;               *0000000000;       ;222222222",
"221o  **    *2222222*               ;000000001       ;2222222222",
"2221       ;222222222o               ;0000002       ;22222222222",
"22221     $2222222222,         ***o   ;00002       ;222222222222",
"222221    ;22222222222$      ,22222;   *55*       ;2222222222222",
"2222221   ;22222222222;    $12222222;            ;22222222222222",
"2222222,   22222222222;   ;22222222221          $222222222222222",
"22222222;  $222222222;   ;2222222222221o       o2222222222222222",
"222222222o  ;2222222;   ,222222222222221o      ;2222222222222222",
"222222222;   122222*   ,22222222222222221      22222222222222222",
"222222222;    ,22;o   1222222222222222222,    o22222222222222222",
"222222222;     o     122222222222222222222;    22222222222222222",
"222222222$          ;2222222222222222222222*   ,2222222222222222",
"22222222;          *222222222222222222222222o  o2222222222222222",
"22222221           2222222222222222222222222;   ;222222222222222",
"2222222o          $22222222222222222222222222o   ;22222222222222",
"222222$           *22222222222222222222222222*    ;2222222222222",
"22222$             22222222222222222222222222*     ,222222222222",
"2222;              ;2222222222222222222222222$      122222222222",
"222$        o      o222222222222222222222222,        ;2222222222",
"22$       ;222;*    *22222222222222222222222o         ;222222222",
"1o       ;222222,o   ;222222222222222222222$           ;22222222",
"        *222222222$   12222222222222222222*    *5771    ;2222221",
"       o22222222222*  o122222222222222222*    ;900007     ;221* ",
"       1222222222222;  $2222222222222222;    ;00000007          ",
"      ;22222222222222*  $22222222222222*    ;0000000007         ",
"     $2222222222222222o  ;222222222221$    ;000000000007        ",
"     12222222222222222;   *222222222,     ;00000000000007       ",
"    $22222222222222222;    $,222222;     *0000000000000007      ",
"    *22222222222222222$      ;222;       70000000000000000;     ",
"    $2222222222222222,                  ;000000000000000007     ",
"     ;222222222222222o                  1000000000000000000     ",
"      ;2222222222222*                   *000000000000000007     ",
"       ;22222222222;                     70000000000000000*     ",
"        ;222222222;                       700000000000000;   o* ",
";        o12222221                         90000000000001   2000",
"02         ;22221         $;;;*            o900000000002   20000",
"002         $;;;         1222222o           o9000000002   200000",
"0002                    122222222$           o7000000;   2000000",
"00001                 o12222222222*            70000;   10000000",
"00007                $2222222222222;            *1;     70000000",
"00007               $222222222222222;                   70000000",
"00001              $22222222222222222;                  10000000",
"0002               1222222222222222222$                  2000000",
"002               122222222222222222222o          ;222;   200000",
"0;               ;2222222222222222222221         ;22222;   20000",
";               $22222222222222222222222;       ;2222222,   ;000",
"     *2771o     ,222222222222222222222222      ;2222222221    * ",
"    *900007    o2222222222222222222222222*    ;222222222221     "
};
